<svg xmlns="http://www.w3.org/2000/svg" viewBox="0 0 800 800">
  <defs>
    <linearGradient id="bg" x1="0" y1="0" x2="1" y2="1">
      <stop offset="0%" stop-color="#0f766e"/>
      <stop offset="100%" stop-color="#0ea5e9"/>
    </linearGradient>
  </defs>
  <rect width="800" height="800" fill="url(#bg)"/>
  <circle cx="640" cy="160" r="130" fill="rgba(255,255,255,0.12)"/>
  <circle cx="140" cy="660" r="150" fill="rgba(255,255,255,0.08)"/>
  <rect x="60" y="60" width="680" height="680" rx="36" fill="rgba(255,255,255,0.08)" stroke="rgba(255,255,255,0.18)"/>
  <text x="84" y="128" fill="#ecfeff" font-family="Segoe UI, Arial, sans-serif" font-size="28" font-weight="700">Flare Fitness</text>
  <text x="84" y="186" fill="#e0f2fe" font-family="Segoe UI, Arial, sans-serif" font-size="60" font-weight="800">VOLLEYBALL</text>
  <text x="84" y="258" fill="#bae6fd" font-family="Segoe UI, Arial, sans-serif" font-size="24" font-weight="600">Indoor, beach, shoes, jerseys and protection</text>
  <circle cx="400" cy="470" r="150" fill="#f8fafc"/>
  <path d="M280 430c52-36 116-46 187-24" stroke="#0f766e" stroke-width="20" fill="none"/>
  <path d="M298 550c-8-70 14-140 64-198" stroke="#0f766e" stroke-width="20" fill="none"/>
  <path d="M440 614c-62-24-110-78-132-146" stroke="#0f766e" stroke-width="20" fill="none"/>
  <path d="M550 520c-44 48-108 78-176 80" stroke="#0f766e" stroke-width="20" fill="none"/>
  <path d="M504 354c42 54 56 127 32 194" stroke="#0f766e" stroke-width="20" fill="none"/>
  <text x="84" y="690" fill="#fde68a" font-family="Segoe UI, Arial, sans-serif" font-size="34" font-weight="800">Sport retail seed image</text>
</svg>
